<svg width="94" height="89" viewBox="0 0 94 89" fill="none" xmlns="http://www.w3.org/2000/svg">
<path d="M37.5487 6.04434C35.7328 7.31361 33.8085 8.42143 31.7981 9.35499C30.3204 10.0118 30.3916 8.64493 28.5846 9.42598C25.7092 10.6508 15.935 14.5561 14.8579 18.9141C16.9056 19.5131 18.9177 20.2272 20.8844 21.0532C20.4126 21.8342 21.285 21.9407 21.8903 21.639C22.6915 22.1626 23.2256 22.6153 23.2256 23.2011C23.2256 24.9762 21.1515 26.9733 19.3444 28.2691C20.1456 28.9259 21.6856 29.5738 21.6856 30.5501C21.6856 31.0649 17.2347 34.6418 13.3891 38.6093C9.90847 42.2483 7.15777 46.2069 7.22898 46.6684C7.17128 46.8689 7.16552 47.0808 7.21221 47.2841C7.2589 47.4874 7.35656 47.6757 7.49607 47.8311C9.92544 47.7058 12.3312 47.2916 14.662 46.5974C14.8788 47.0281 15.2314 47.3759 15.6655 47.5875C16.0997 47.7992 16.5915 47.8629 17.0655 47.769L17.5373 49.2601L19.3177 49.4554C19.5848 50.3429 20.7242 51.0174 20.7242 52.0561C16.7985 53.1655 11.395 55.0296 8.16368 55.0296C5.21716 55.0296 2.74247 52.5618 0.472482 51.3284C0.232358 50.566 0.0742465 49.7805 0.000695568 48.985C-0.0705107 44.6359 5.34178 37.8104 8.69781 35.6004L9.50783 35.7957C10.2859 34.8397 10.793 33.6935 10.9767 32.4762L6.69485 30.2661C9.02937 27.7969 11.7316 25.7013 14.7066 24.0532C11.9648 22.6951 9.89063 21.1952 9.81942 17.8401C9.94557 16.1584 10.6831 14.5803 11.8936 13.4023L12.8371 13.7307C13.2377 12.6212 14.4395 12.497 15.1071 11.6449L14.9558 10.5266C15.0893 10.4023 15.2852 10.3313 16.2288 9.74554C16.8252 10.5266 18.4364 9.29283 19.2376 8.70704C19.1753 8.58278 20.1278 8.12124 20.4394 7.02069C21.7123 6.23964 23.0565 5.52069 24.3917 4.81063L24.6588 5.78694C26.8041 4.89939 28.6735 4.01182 30.6142 2.99111C30.9524 2.79584 30.8901 2.34318 30.4806 2.53845C29.2165 2.99111 28.6112 3.31064 28.1394 2.85798L33.6497 0H34.5399C34.5399 0.976327 34.8069 1.62425 37.2817 1.10059L38.4211 3.89643L37.5487 6.04434Z" fill="white"/>
<path d="M9.19636 29.8313C10.7323 28.4576 12.359 27.1885 14.0657 26.0325C14.9559 25.4378 13.9411 25.6774 13.1755 26.0325C11.5427 27.0978 10.0111 28.31 8.59995 29.6538L9.19636 29.8313Z" fill="white"/>
<path d="M18.0092 48.5501L17.7421 47.7069L18.4097 47.6359L19.1397 48.8075L18.0092 48.5501Z" fill="white"/>
<path d="M84.9243 52.5709L84.1144 52.3046C83.3218 53.2793 82.8029 54.4461 82.6097 55.6861L86.8918 57.8963C84.5746 60.3656 81.8869 62.4619 78.9245 64.109C81.6754 65.476 83.6781 66.9051 83.7494 70.3222C83.7494 71.8132 83.0817 73.3754 82.2091 75.5856L81.3191 75.1948C80.7136 75.8427 79.3073 77.0766 78.6488 77.7246L79.1829 78.31C79.0494 78.4432 78.8445 78.5763 78.7109 78.7008C78.1146 77.9197 76.5742 79.0911 75.7735 79.6771C74.9722 80.263 74.0109 80.7687 73.7082 81.8781C72.4349 82.6592 71.0373 83.3783 69.6932 84.0882L69.4888 83.112C67.3475 83.6995 65.3133 84.6223 63.462 85.8456L63.5955 86.3604C64.8683 85.9081 65.4738 85.5884 65.9458 86.0412C64.0629 86.9631 62.1143 87.7432 60.1147 88.3754L59.2248 88.1802C59.2248 87.2126 58.8863 86.556 56.4117 87.0795L55.3347 84.3189L56.0733 82.1713C57.6758 81.0086 60.8273 80.2274 62.305 79.5795C63.7826 78.9315 63.7112 80.2275 65.5182 79.4464C68.3669 78.1774 77.5626 73.7571 78.6309 69.3993C76.7628 68.4591 74.8178 67.678 72.8177 67.0647C73.2805 66.2836 72.3462 66.1773 71.7407 66.5412C70.9394 66.0173 70.4679 65.5024 70.4679 64.917C70.4679 63.1419 72.4798 61.1447 74.2867 59.8488C73.4767 59.2008 71.9277 58.5798 71.9277 57.6386C71.9277 56.6979 85.8499 42.2306 86.4555 41.5205L86.3219 40.3489C83.8279 40.4524 81.3543 40.8456 78.951 41.5205C78.7283 41.0982 78.372 40.7608 77.9377 40.5604C77.5034 40.3598 77.0151 40.3074 76.5477 40.4111L76.0758 38.9199L74.2953 38.7247C74.0288 37.8371 72.9604 37.1626 72.9604 36.1241C76.904 35.0235 82.3253 33.133 85.5385 33.133C88.4851 33.133 90.8797 35.6004 93.1765 36.843C93.4777 37.5631 93.6352 38.3349 93.6393 39.1152C93.6928 43.4909 87.5952 49.127 84.9243 52.5709Z" fill="white"/>
<path d="M70.8686 65.1834C71.6698 65.3165 72.5419 63.9495 73.5389 63.4083C73.8774 63.2126 73.8152 62.7603 73.4054 62.5204C72.4084 63.2517 71.5495 64.1533 70.8686 65.1834Z" fill="white"/>
<path d="M61.9487 56.8042C61.0434 57.4979 59.9389 57.8837 58.7977 57.905C57.9964 57.905 57.8007 57.781 57.6671 57.5853C56.4561 58.7481 58.397 59.7248 62.9548 57.967C63.2841 57.905 63.8448 58.1001 63.5512 58.2333C62.2871 58.8192 59.4741 60.2483 58.5306 60.2483C57.1335 60.2971 55.7547 60.5822 54.4534 61.0914C50.2341 62.5204 43.5397 64.9877 38.7238 66.8782C37.8336 67.1979 36.4449 68.5024 35.6437 68.5649C34.5344 68.7189 33.4166 68.8048 32.2966 68.8221C32.059 68.8226 31.826 68.756 31.6245 68.6305C31.4229 68.505 31.261 68.3256 31.1572 68.1121H29.6172C28.6113 67.1359 27.4718 65.1209 26.5995 65.1209H25.7983C26.9377 53.6712 38.9908 36.1241 45.0797 28.5177V27.5147C48.8273 27.5147 50.7682 30.4437 50.7682 33.559C50.7682 34.3401 47.3588 41.7513 46.1477 43.8993C45.3468 45.2572 43.2014 47.2098 42.0709 48.772C41.4655 49.6596 41.065 51.3015 40.5309 52.2157C39.792 53.5116 37.5131 54.621 38.3143 56.5029C42.8721 55.1358 43.7444 55.0118 44.2786 54.8787C45.0831 54.6424 45.9148 54.5113 46.7532 54.4879C47.2589 54.4421 47.7676 54.5326 48.2263 54.7496C48.685 54.9666 49.077 55.3025 49.3614 55.7218C50.4175 55.1323 51.5415 54.6734 52.7087 54.3547C53.5986 54.3547 53.7143 54.683 54.6491 54.683C55.584 54.683 59.0021 53.5828 61.281 52.9079C61.3432 53.041 61.6102 53.1742 62.0822 53.2367V53.254C60.0082 53.9111 57.2665 54.559 55.5218 55.5973L56.189 55.9881C58.2635 55.269 62.4829 53.4496 64.8239 52.9348C65.4748 53.1437 66.0788 53.475 66.6044 53.9111C67.6105 53.5203 69.3553 52.6065 69.4174 53.0233C69.6488 54 65.3581 55.9169 61.9487 56.8042Z" fill="white"/>
<path d="M37.5844 52.3666C37.1126 53.538 36.3114 54.6388 37.1838 55.0291L38.3855 52.5618L37.5844 52.3666Z" fill="white"/>
<path d="M55.1211 59.2009C51.5603 59.8488 44.145 62.5118 39.525 64.7214L39.5872 64.9791L56.189 59.6537L55.1211 59.2009Z" fill="white"/>
<path d="M41.4655 47.3696C40.7979 47.3696 40.5308 48.1507 40.5308 48.5412H41.4655V47.3696Z" fill="white"/>
<path d="M50.0291 56.7244L51.5068 55.9169C51.1989 55.7909 50.863 55.7482 50.5327 55.7934C50.2029 55.8387 49.891 55.9703 49.6285 56.1746L50.0291 56.7244Z" fill="white"/>
<path d="M62.8835 52.8901C62.6878 52.9612 62.1444 52.633 62.3493 52.571L63.6847 52.1801C64.4233 51.985 64.3611 52.3753 64.0227 52.4998L62.8835 52.8901Z" fill="white"/>
<path d="M64.6282 57.7718C64.4748 57.8633 64.2928 57.8938 64.118 57.8577C63.9432 57.8216 63.7887 57.721 63.6842 57.5767V57.5055C67.637 55.8193 68.1355 55.5617 68.6427 55.9525L64.6282 57.7718Z" fill="white"/>
<path d="M67.165 53.0857C66.8617 52.8448 66.5264 52.6476 66.168 52.4998C66.4351 52.3046 68.7762 51.5322 68.7762 51.8518C68.7762 52.1715 67.637 52.7661 67.165 53.0857Z" fill="white"/>
</svg>
