<svg width="100" height="101" viewBox="0 0 100 101" fill="none" xmlns="http://www.w3.org/2000/svg">
<path d="M50 59.4953C54.9188 59.4953 58.9063 55.468 58.9063 50.5C58.9063 45.532 54.9188 41.5047 50 41.5047C45.0812 41.5047 41.0938 45.532 41.0938 50.5C41.0938 55.468 45.0812 59.4953 50 59.4953Z" fill="#61DAFB"/>
<path d="M83.7344 36.2742C82.0156 35.643 80.2188 35.0117 78.3438 34.4594C78.8125 32.5656 79.2031 30.6719 79.5156 28.857C81.1562 18.4414 79.3594 11.1031 74.3594 8.2625C72.875 7.39453 71.2344 7 69.3594 7C63.8906 7 56.9375 11.1031 49.9062 17.968C42.875 11.1031 35.9219 7 30.4531 7C28.5781 7 26.9375 7.39453 25.4531 8.2625C20.4531 11.182 18.6562 18.5203 20.2969 28.857C20.6094 30.6719 21 32.5656 21.4688 34.4594C19.5938 35.0117 17.7969 35.5641 16.0781 36.2742C6.3125 40.0617 1 45.2695 1 51.1086C1 56.9477 6.39063 62.1555 16.0781 65.943C17.7969 66.5742 19.5938 67.2055 21.4688 67.7578C21 69.6516 20.6094 71.5453 20.2969 73.3602C18.6562 83.7758 20.4531 91.1141 25.4531 93.9547C26.9375 94.8227 28.5781 95.2172 30.4531 95.2172C36 95.2172 42.9531 91.1141 49.9062 84.2492C56.9375 91.1141 63.8906 95.2172 69.3594 95.2172C71.2344 95.2172 72.875 94.8227 74.3594 93.9547C79.3594 91.0352 81.1562 83.6969 79.5156 73.3602C79.2031 71.5453 78.8125 69.6516 78.3438 67.7578C80.2188 67.2055 82.0156 66.6531 83.7344 65.943C93.5 62.1555 98.8125 56.9477 98.8125 51.1086C98.8125 45.2695 93.5 40.0617 83.7344 36.2742ZM72.1719 12.2078C75.375 14.1016 76.4688 19.9406 75.1406 28.2258C74.9062 29.8828 74.5156 31.6187 74.0469 33.4336C69.9844 32.4867 65.6875 31.8555 61.1562 31.4609C58.5 27.6734 55.7656 24.2805 53.0312 21.2031C58.8125 15.443 64.6719 11.4977 69.4375 11.4977C70.4531 11.4977 71.3906 11.7344 72.1719 12.2078ZM63.4219 58.9992C62.0156 61.5242 60.375 64.0492 58.6562 66.5742C55.7656 66.8109 52.875 66.8898 49.9062 66.8898C46.8594 66.8898 43.9688 66.8109 41.1562 66.5742C39.4375 64.0492 37.875 61.5242 36.4688 58.9992C34.9844 56.3953 33.5781 53.7125 32.3281 51.1086C33.5781 48.5047 34.9844 45.8219 36.4688 43.218C37.875 40.693 39.5156 38.168 41.2344 35.643C44.125 35.4062 47.0156 35.3273 49.9844 35.3273C53.0312 35.3273 55.9219 35.4062 58.7344 35.643C60.4531 38.168 62.0156 40.693 63.4219 43.218C64.9062 45.8219 66.3125 48.5047 67.5625 51.1086C66.2344 53.7125 64.9062 56.3164 63.4219 58.9992ZM69.9062 56.3953C71.0781 59.157 72.0156 61.8398 72.875 64.5227C70.2188 65.1539 67.4062 65.6273 64.4375 66.0219C65.375 64.5227 66.3906 62.9445 67.25 61.2875C68.1875 59.6305 69.0469 57.9734 69.9062 56.3953ZM49.9062 77.7789C48.0312 75.7273 46.2344 73.518 44.5156 71.2297C46.3125 71.3086 48.1094 71.3875 49.9062 71.3875C51.7031 71.3875 53.5 71.3086 55.2969 71.2297C53.5781 73.518 51.7812 75.7273 49.9062 77.7789ZM35.375 65.943C32.4062 65.5484 29.5937 65.075 26.9375 64.4437C27.7969 61.8398 28.7344 59.0781 29.9062 56.3164C30.7656 57.8945 31.625 59.5516 32.5625 61.1297C33.5 62.8656 34.4375 64.3648 35.375 65.943ZM29.9062 45.8219C28.7344 43.0602 27.7969 40.3773 26.9375 37.6945C29.5937 37.0633 32.4062 36.5898 35.375 36.1953C34.4375 37.6945 33.4219 39.2727 32.5625 40.9297C31.625 42.5867 30.7656 44.2437 29.9062 45.8219ZM49.9062 24.4383C51.7812 26.4898 53.5781 28.6992 55.2969 30.9875C53.5 30.9086 51.7031 30.8297 49.9062 30.8297C48.1094 30.8297 46.3125 30.9086 44.5156 30.9875C46.2344 28.6992 48.0312 26.4898 49.9062 24.4383ZM67.25 41.0086L64.4375 36.2742C67.4062 36.6687 70.2188 37.1422 72.875 37.7734C72.0156 40.3773 71.0781 43.1391 69.9062 45.9008C69.0469 44.2438 68.1875 42.5867 67.25 41.0086ZM24.6719 28.2258C23.3438 19.9406 24.4375 14.1016 27.6406 12.2078C28.4219 11.7344 29.3594 11.4977 30.375 11.4977C35.0625 11.4977 40.9219 15.3641 46.7812 21.2031C44.0469 24.2016 41.3125 27.6734 38.6562 31.4609C34.125 31.8555 29.8281 32.5656 25.7656 33.4336C25.2969 31.6187 24.9844 29.8828 24.6719 28.2258ZM5.375 51.1086C5.375 47.4 9.82813 43.4547 17.6406 40.5352C19.2031 39.9039 20.9219 39.3516 22.6406 38.8781C23.8906 42.8234 25.4531 47.0055 27.3281 51.1875C25.4531 55.3695 23.8125 59.4727 22.6406 63.418C11.8594 60.2617 5.375 55.5273 5.375 51.1086ZM27.6406 90.0094C24.4375 88.1156 23.3438 82.2766 24.6719 73.9914C24.9062 72.3344 25.2969 70.5984 25.7656 68.7836C29.8281 69.7305 34.125 70.3617 38.6562 70.7562C41.3125 74.5437 44.0469 77.9367 46.7812 81.0141C41 86.7742 35.1406 90.7195 30.375 90.7195C29.3594 90.7195 28.4219 90.4828 27.6406 90.0094ZM75.1406 73.9914C76.4688 82.2766 75.375 88.1156 72.1719 90.0094C71.3906 90.4828 70.4531 90.7195 69.4375 90.7195C64.75 90.7195 58.8906 86.8531 53.0312 81.0141C55.7656 78.0156 58.5 74.5437 61.1562 70.7562C65.6875 70.3617 69.9844 69.6516 74.0469 68.7836C74.5156 70.5984 74.8281 72.3344 75.1406 73.9914ZM82.1719 61.682C80.6094 62.3133 78.8906 62.8656 77.1719 63.3391C75.9219 59.3937 74.3594 55.2117 72.4844 51.0297C74.3594 46.8477 76 42.7445 77.1719 38.7992C87.9531 41.9555 94.4375 46.6898 94.4375 51.1086C94.4375 54.8172 89.9062 58.7625 82.1719 61.682Z" fill="#61DAFB"/>
</svg>
