<svg width="528" height="410" viewBox="0 0 528 410" fill="none" xmlns="http://www.w3.org/2000/svg">
<path opacity="0.4" d="M217.204 379.545L416.013 0H18.3947L217.204 379.545L416.013 0H18.3947L217.204 379.545Z" fill="url(#paint0_linear)"/>
<path d="M244.281 335.48H190.127V389.533H244.281V335.48Z" fill="#3F3D56"/>
<path d="M220.147 216.211C163.672 216.211 117.726 170.351 117.726 113.981C117.726 57.6109 163.672 11.7505 220.147 11.7505C276.623 11.7505 322.569 57.6109 322.569 113.981C322.569 170.351 276.623 216.211 220.147 216.211ZM220.147 14.6881C165.295 14.6881 120.669 59.2306 120.669 113.981C120.669 168.731 165.295 213.274 220.147 213.274C274.999 213.274 319.625 168.731 319.625 113.981C319.625 59.2306 274.999 14.6881 220.147 14.6881V14.6881Z" fill="#3F3D56"/>
<path d="M220.147 191.535C177.304 191.535 142.448 156.745 142.448 113.981C142.448 71.2176 177.304 36.427 220.147 36.427C262.991 36.427 297.846 71.2176 297.846 113.981C297.846 156.745 262.991 191.535 220.147 191.535ZM220.147 38.1896C205.129 38.1896 190.448 42.6347 177.961 50.9628C165.474 59.2908 155.741 71.1279 149.994 84.9769C144.247 98.826 142.743 114.065 145.673 128.767C148.603 143.469 155.835 156.974 166.454 167.574C177.074 178.173 190.604 185.392 205.333 188.316C220.063 191.241 235.331 189.74 249.205 184.003C263.08 178.267 274.94 168.552 283.283 156.089C291.627 143.625 296.08 128.971 296.08 113.981C296.058 93.8869 288.05 74.6222 273.815 60.4135C259.58 46.2048 240.279 38.2123 220.147 38.1896Z" fill="#3F3D56"/>
<path d="M220.147 138.657C215.258 138.657 210.478 137.21 206.412 134.499C202.347 131.787 199.178 127.933 197.307 123.424C195.435 118.915 194.946 113.954 195.9 109.167C196.854 104.38 199.208 99.9833 202.666 96.5322C206.123 93.0812 210.528 90.731 215.324 89.7788C220.12 88.8267 225.091 89.3154 229.608 91.1831C234.125 93.0508 237.987 96.2136 240.703 100.272C243.42 104.33 244.87 109.1 244.87 113.981C244.862 120.523 242.255 126.795 237.62 131.422C232.986 136.048 226.702 138.65 220.147 138.657ZM220.147 90.4798C215.49 90.4798 210.938 91.8581 207.066 94.4404C203.194 97.0228 200.176 100.693 198.394 104.987C196.612 109.282 196.146 114.007 197.054 118.566C197.963 123.125 200.205 127.312 203.498 130.599C206.791 133.886 210.986 136.124 215.554 137.031C220.121 137.937 224.855 137.472 229.157 135.693C233.46 133.915 237.137 130.902 239.724 127.038C242.311 123.173 243.692 118.629 243.692 113.981C243.685 107.75 241.202 101.777 236.788 97.3709C232.374 92.9651 226.39 90.4868 220.147 90.4798V90.4798Z" fill="#3F3D56"/>
<path d="M214.261 84.6045C211.092 84.6045 207.953 85.2276 205.025 86.4381C202.097 87.6487 199.437 89.4231 197.196 91.6599C194.955 93.8968 193.177 96.5523 191.964 99.4749C190.751 102.397 190.127 105.53 190.127 108.693H214.261V84.6045Z" fill="#2533F2"/>
<path opacity="0.3" d="M190.127 119.269C190.127 125.658 192.67 131.785 197.196 136.302C201.722 140.82 207.86 143.358 214.261 143.358V119.269H190.127Z" fill="#2533F2"/>
<path opacity="0.3" d="M224.268 84.6045V108.693H248.401C248.401 105.53 247.777 102.397 246.564 99.4749C245.351 96.5523 243.574 93.8968 241.333 91.6599C239.092 89.4231 236.431 87.6487 233.503 86.4381C230.575 85.2276 227.437 84.6045 224.268 84.6045Z" fill="#2533F2"/>
<path d="M224.268 141.007C230.668 141.007 236.807 138.47 241.333 133.952C245.859 129.435 248.401 123.307 248.401 116.919H224.268V141.007Z" fill="#2533F2"/>
<path d="M244.52 85.1468L243.453 84.6497L255.973 57.8718H336.99V59.0469H256.723L244.52 85.1468Z" fill="#3F3D56"/>
<path d="M356.709 32.3142H310.796V35.8394H356.709V32.3142Z" fill="#3F3D56"/>
<path d="M356.709 39.9521H310.796V43.4773H356.709V39.9521Z" fill="#3F3D56"/>
<path d="M356.709 47.5901H310.796V51.1153H356.709V47.5901Z" fill="#3F3D56"/>
<path d="M243.104 226.199H197.191V229.725H243.104V226.199Z" fill="#3F3D56"/>
<path d="M243.104 233.837H197.191V237.363H243.104V233.837Z" fill="#3F3D56"/>
<path d="M243.104 241.475H197.191V245.001H243.104V241.475Z" fill="#3F3D56"/>
<path d="M262.528 251.463H261.351V159.976L247.901 138.38L248.902 137.76L262.528 159.64V251.463Z" fill="#3F3D56"/>
<path d="M178.943 251.463H177.766V159.64L191.393 137.76L192.393 138.38L178.943 159.976V251.463Z" fill="#3F3D56"/>
<path d="M528 388.946H0V390.121H528V388.946Z" fill="#2F2E41"/>
<path d="M406.074 277.176C426.082 277.176 442.302 273.08 442.302 268.027C442.302 262.974 426.082 258.877 406.074 258.877C386.065 258.877 369.845 262.974 369.845 268.027C369.845 273.08 386.065 277.176 406.074 277.176Z" fill="#2F2E41"/>
<path d="M391.887 146.255C391.887 146.255 391.451 163.682 387.959 165.861C384.467 168.039 394.07 174.574 394.07 174.574L408.474 171.96L417.641 160.632C417.641 160.632 411.093 152.79 413.276 146.255H391.887Z" fill="#FFB6B6"/>
<path opacity="0.1" d="M391.887 146.255C391.887 146.255 391.451 163.682 387.959 165.861C384.467 168.039 394.07 174.574 394.07 174.574L408.474 171.96L417.641 160.632C417.641 160.632 411.093 152.79 413.276 146.255H391.887Z" fill="black"/>
<path d="M372.245 163.247C372.245 163.247 364.825 166.296 364.389 176.753C363.952 187.209 364.389 217.706 364.389 217.706L377.047 216.835L372.245 163.247Z" fill="#F0F0F0"/>
<path d="M428.112 272.979L427.247 273.095L442.961 390.074L443.826 389.958L428.112 272.979Z" fill="#2F2E41"/>
<path d="M413.71 274.742L412.841 274.817L422.88 390.272L423.75 390.196L413.71 274.742Z" fill="#2F2E41"/>
<path d="M386.183 256.874L374.025 389.979L374.894 390.059L387.053 256.954L386.183 256.874Z" fill="#2F2E41"/>
<path d="M397.474 254.694L396.602 254.725L401.491 390.468L402.363 390.436L397.474 254.694Z" fill="#2F2E41"/>
<path d="M360.024 236.876C360.024 236.876 309.827 240.361 318.121 256.917C326.414 273.473 366.571 301.356 366.571 301.356C366.571 301.356 373.991 303.099 375.301 303.534C376.61 303.97 396.689 290.464 396.689 290.464C396.689 290.464 384.467 283.058 378.793 281.751C373.118 280.444 356.968 266.502 356.968 266.502L402.363 255.174L375.737 232.519L360.024 236.876Z" fill="#2F2E41"/>
<path d="M400.181 247.768C400.181 247.768 371.372 288.444 377.047 304.485C382.721 320.526 378.793 373.678 378.793 373.678C378.793 373.678 400.181 380.649 400.181 373.678C400.181 366.708 406.292 317.476 400.181 300.92C400.181 300.92 401.49 290.464 404.982 288.721C408.474 286.979 420.696 270.859 420.696 270.859C420.696 270.859 433.791 264.759 432.045 259.095C430.299 253.432 400.181 247.768 400.181 247.768Z" fill="#2F2E41"/>
<path d="M420.259 137.106C420.259 140.553 419.235 143.922 417.317 146.788C415.398 149.654 412.672 151.887 409.481 153.206C406.291 154.525 402.78 154.87 399.394 154.198C396.007 153.526 392.896 151.866 390.454 149.429C388.012 146.991 386.349 143.886 385.676 140.506C385.002 137.125 385.348 133.621 386.669 130.437C387.991 127.252 390.228 124.531 393.1 122.616C395.971 120.701 399.347 119.679 402.8 119.679C405.093 119.678 407.364 120.128 409.483 121.003C411.601 121.879 413.526 123.162 415.148 124.781C416.769 126.399 418.055 128.321 418.932 130.436C419.81 132.55 420.26 134.817 420.259 137.106V137.106Z" fill="#FFB6B6"/>
<path d="M414.149 154.533C414.149 154.533 440.338 165.425 436.41 179.367C432.481 193.308 424.188 253.432 411.53 253.432C398.871 253.432 372.245 246.461 370.499 243.847C368.753 241.233 377.047 188.08 377.047 188.08C377.047 188.08 387.076 155.673 390.791 158.37C390.791 158.37 388.396 172.396 401.054 168.91C413.712 165.425 414.149 154.533 414.149 154.533Z" fill="#F0F0F0"/>
<path d="M391.313 154.533C391.313 154.533 369.19 157.583 370.063 162.375L368.317 180.674L375.301 217.706L374.428 229.905L353.04 237.312L378.356 244.718C378.356 244.718 388.832 194.615 387.086 185.03C385.34 175.445 391.313 154.533 391.313 154.533Z" fill="#3F3D56"/>
<path d="M413.47 152.99C413.47 152.99 437.283 166.732 439.029 171.089C440.774 175.445 439.029 217.27 439.029 217.27C439.029 217.27 442.084 256.481 433.354 266.502C433.354 266.502 436.41 261.274 420.259 261.274C404.109 261.274 396.252 258.224 395.816 257.788C395.379 257.353 387.086 257.788 387.086 257.788C387.086 257.788 384.031 195.487 394.07 184.159C404.109 172.831 414.975 159.724 413.47 152.99Z" fill="#3F3D56"/>
<path d="M367.008 244.718V249.946C367.008 249.946 349.548 266.066 356.532 270.423C363.516 274.78 377.047 254.739 377.047 254.739L378.691 243.094L367.008 244.718Z" fill="#FFB6B6"/>
<path opacity="0.1" d="M367.008 244.718V249.946C367.008 249.946 349.548 266.066 356.532 270.423C363.516 274.78 377.047 254.739 377.047 254.739L378.691 243.094L367.008 244.718Z" fill="black"/>
<path d="M373.991 300.049L378.793 307.02C378.793 307.02 362.206 332.289 369.626 334.903C377.047 337.517 409.347 306.148 408.911 303.534C408.474 300.92 393.197 290.464 393.197 290.464L373.991 300.049Z" fill="#2F2E41"/>
<path d="M380.102 370.193L376.174 387.62C376.174 387.62 360.897 407.661 367.881 409.404C374.864 411.146 390.578 408.968 392.761 404.176C394.943 399.383 397.562 392.848 401.054 387.62C404.546 382.392 397.998 370.193 397.998 370.193H380.102Z" fill="#2F2E41"/>
<path d="M367.444 209.864L364.389 217.706L365.698 247.768C365.698 247.768 376.61 243.411 380.102 247.768L377.047 217.706L372.245 209.864H367.444Z" fill="#F0F0F0"/>
<path d="M383.594 247.768L375.301 250.382C375.301 250.382 343.001 260.838 357.405 268.245C371.809 275.651 380.102 263.452 380.102 263.452L385.777 259.095L383.594 247.768Z" fill="#FFB6B6"/>
<path d="M432.481 172.396C432.481 172.396 420.696 178.059 418.95 193.308C417.204 208.557 415.022 228.598 415.022 228.598L393.197 242.975C393.197 242.975 378.272 242.384 380.497 247.908C382.721 253.432 383.158 265.195 387.086 263.452C391.015 261.709 396.689 251.253 402.363 250.818C408.038 250.382 431.608 241.233 434.227 230.776C436.846 220.32 446.885 185.03 442.52 179.802C438.156 174.574 435.973 170.217 432.481 172.396Z" fill="#F0F0F0"/>
<path d="M386.276 125.997C386.276 125.997 379.29 125.892 377.767 128.585C376.244 131.278 376.744 133.231 378.809 133.28C380.874 133.329 390.489 127.675 390.489 127.675L386.276 125.997Z" fill="#3F3D56"/>
<path opacity="0.1" d="M386.276 125.997C386.276 125.997 379.29 125.892 377.767 128.585C376.244 131.278 376.744 133.231 378.809 133.28C380.874 133.329 390.489 127.675 390.489 127.675L386.276 125.997Z" fill="black"/>
<path d="M416.811 134.913L412.033 139.045C412.033 139.045 407.497 143.244 400.967 136.78C394.437 130.316 385.201 125.183 381.397 126.73L391.095 122.655L400.521 122.394L411.23 126.895L416.811 134.913Z" fill="#3F3D56"/>
<path d="M420.072 139.57C418.215 137.476 416.211 135.515 414.077 133.702C409.959 130.174 404.137 126.096 397.945 124.668C397.945 124.668 391.732 122.7 387.312 124.597L395.86 115.278C395.86 115.278 400.48 112.658 402.895 113.322C402.895 113.322 411.019 115.066 413.317 117.104C413.382 117.16 413.441 117.218 413.496 117.275C414.898 117.476 416.182 118.17 417.116 119.232C419.208 121.618 422.498 126.293 421.785 131.484C420.755 138.98 420.072 139.57 420.072 139.57Z" fill="#3F3D56"/>
<path opacity="0.1" d="M415.679 135.983C398.082 121.182 388.08 124.401 387.981 124.435L387.692 123.613C388.113 123.465 398.209 120.15 416.241 135.316L415.679 135.983Z" fill="black"/>
<path d="M415.325 118.154C415.808 117.32 415.183 116.06 413.93 115.338C412.678 114.616 411.271 114.706 410.789 115.54C410.307 116.373 410.932 117.634 412.184 118.356C413.437 119.078 414.843 118.987 415.325 118.154Z" fill="#3F3D56"/>
<path d="M417.738 139.479C418.453 139.375 418.892 138.325 418.718 137.135C418.544 135.944 417.822 135.064 417.107 135.168C416.391 135.273 415.952 136.322 416.127 137.513C416.301 138.703 417.022 139.584 417.738 139.479Z" fill="#FFB6B6"/>
<path d="M402.499 149.096C404.17 146.307 401.595 145.109 401.595 145.109C401.595 145.109 395.702 142.966 393.511 142.164C391.316 141.367 390.294 144.521 390.294 144.521C389.897 144.708 387.505 142.887 385.825 141.197C386.471 143.863 387.737 146.339 389.522 148.424C391.307 150.509 393.56 152.145 396.097 153.197C398.635 154.25 401.385 154.69 404.125 154.483C406.865 154.275 409.517 153.425 411.866 152.002L414.956 144.547C410.691 147.386 406.535 148.944 402.499 149.096ZM399.823 150.146C399.298 150.668 398.647 151.047 397.933 151.244C397.219 151.442 396.466 151.452 395.746 151.274L395.881 150.542C395.881 150.542 398.413 150.416 397.344 149.766C396.159 149.198 394.92 148.747 393.647 148.42C393.647 148.42 392.839 148.128 393.655 149.47L394.109 150.028L393.782 150.559C393.782 150.559 391.407 149.174 391.63 146.773C391.63 146.773 391.381 144.591 394.266 145.641C397.156 146.695 399.238 147.449 399.238 147.449C399.238 147.449 401.661 148.333 399.823 150.146V150.146Z" fill="#3F3D56"/>
<defs>
<linearGradient id="paint0_linear" x1="217.204" y1="379.545" x2="217.204" y2="0" gradientUnits="userSpaceOnUse">
<stop stop-color="#E4E4E4"/>
<stop offset="0.4735" stop-color="#F0F0F0" stop-opacity="0.7"/>
</linearGradient>
</defs>
</svg>
